# xmcd
#
# Track frame offsets:
#	182
#	18050
#	32817
#	42332
#	59727
#	77542
#	87222
#	96887
#	116077
#	133152
#	146180
#	161565
#	180847
#	201002
#
# Disc length: 2753 seconds
#
# Revision: 0
# Processed by: cddbd v1.4PL0 Copyright (c) Steve Scherf et al.
# Submitted via: EasyCDDAExtractor 4.6.0.1
#
DISCID=b90abf0e
DTITLE=Cedell Davis - Feel Like Doin' Something Wrong
DYEAR=1900
DGENRE=Blues
TTITLE0=I don't know why
TTITLE1=Every day every way
TTITLE2=She's got the devil in her
TTITLE3=Boogie chillen
TTITLE4=Baby, I love you so
TTITLE5=If you like fat women
TTITLE6=Guitar boogie
TTITLE7=Falling rain blues
TTITLE8=In the evening
TTITLE9=Sit down on my knee
TTITLE10=Got to be moving on
TTITLE11=So long
TTITLE12=Murder my baby
TTITLE13=Green onions
EXTD=
EXTT0=
EXTT1=
EXTT2=
EXTT3=
EXTT4=
EXTT5=
EXTT6=
EXTT7=
EXTT8=
EXTT9=
EXTT10=
EXTT11=
EXTT12=
EXTT13=
PLAYORDER=
